<?xml version="1.0" standalone="no"?>
<!DOCTYPE svg PUBLIC "-//W3C//DTD SVG 20010904//EN"
 "http://www.w3.org/TR/2001/REC-SVG-20010904/DTD/svg10.dtd">
<svg version="1.0" xmlns="http://www.w3.org/2000/svg"
 width="1052.000000pt" height="680.000000pt" viewBox="0 0 1052.000000 680.000000"
 preserveAspectRatio="xMidYMid meet">

<g transform="translate(0.000000,680.000000) scale(0.100000,-0.100000)"
fill="#000000" stroke="none">
<path d="M2860 5934 c-19 -2 -78 -9 -130 -14 -330 -36 -695 -160 -990 -336
-375 -224 -680 -529 -904 -904 -175 -292 -291 -632 -338 -990 -16 -123 -16
-497 0 -620 82 -623 356 -1150 820 -1581 256 -239 575 -425 922 -539 274 -91
491 -124 800 -124 228 0 329 9 530 50 689 141 1304 583 1674 1204 175 292 291
632 338 990 16 123 16 497 0 620 -47 358 -163 698 -338 990 -224 375 -529 680
-904 904 -289 173 -634 291 -980 336 -88 12 -438 21 -500 14z m520 -219 c572
-87 1098 -380 1462 -815 287 -344 466 -741 535 -1190 12 -83 17 -175 17 -330
0 -155 -5 -247 -17 -330 -57 -370 -181 -687 -388 -995 -369 -547 -949 -909
-1619 -1012 -159 -24 -501 -24 -660 0 -363 56 -682 179 -980 378 -556 370
-923 953 -1027 1629 -24 159 -24 501 0 660 57 370 181 687 388 995 398 590
1037 962 1769 1029 91 8 418 -4 520 -19z"/>
<path d="M2950 5003 c-582 -32 -1107 -380 -1367 -906 -115 -232 -165 -452
-165 -717 0 -265 50 -485 165 -717 81 -164 164 -281 296 -416 211 -217 467
-366 761 -442 l85 -22 110 -108 c209 -204 448 -356 640 -406 263 -68 527 -16
760 149 108 76 154 121 333 321 202 227 217 254 217 391 0 88 -3 101 -33 162
-34 69 -97 134 -160 167 l-33 17 -2 99 c-2 88 -5 107 -31 155 -36 70 -87 124
-153 162 l-53 30 6 53 c8 64 -9 142 -44 208 -23 43 -102 126 -144 152 -14 8
19 49 207 257 252 280 260 292 260 423 -1 69 -5 89 -32 145 -40 82 -110 153
-187 190 -46 21 -76 46 -119 97 -216 253 -534 444 -867 519 -101 22 -302 46
-365 42 -16 -1 -55 -3 -85 -5z m350 -224 c265 -48 511 -171 705 -352 l77 -72
-51 -35 c-32 -22 -193 -194 -427 -455 -207 -231 -379 -423 -383 -428 -4 -4
-36 0 -72 9 -76 20 -151 14 -235 -17 -48 -18 -75 -38 -144 -108 -183 -187
-295 -368 -356 -571 -15 -53 -19 -95 -18 -225 0 -146 2 -167 27 -240 14 -44
44 -115 66 -157 22 -43 38 -78 36 -78 -3 0 -42 17 -87 38 -421 195 -728 601
-804 1060 -21 125 -21 339 0 464 87 527 465 962 976 1126 223 71 451 85 690
41z m1001 -574 c84 -30 141 -110 141 -197 -1 -28 -8 -60 -16 -73 -8 -12 -164
-188 -346 -391 -332 -369 -357 -403 -307 -412 10 -2 33 10 51 26 129 113 336
23 336 -145 0 -63 -22 -106 -95 -190 -55 -63 -63 -77 -55 -94 14 -26 22 -24
74 12 62 44 118 49 189 16 57 -26 96 -69 116 -126 26 -80 5 -141 -88 -245 -64
-73 -70 -86 -46 -106 12 -10 21 -8 49 14 50 38 84 48 138 41 128 -18 212 -146
173 -264 -12 -38 -50 -86 -175 -226 -209 -233 -280 -295 -417 -364 -248 -124
-534 -92 -808 92 -149 100 -352 295 -462 444 -295 397 -266 735 96 1150 83 95
132 123 210 123 50 0 114 -21 127 -41 3 -5 -31 -50 -75 -101 -80 -90 -99 -128
-63 -128 20 0 43 25 653 705 213 237 396 438 407 448 25 23 87 46 123 47 15 0
46 -7 70 -15z"/>
<path d="M9110 4124 l0 -275 -43 35 c-94 77 -244 126 -387 126 -172 0 -313
-56 -434 -170 l-76 -73 0 112 0 111 -135 0 -134 0 -3 -352 c-3 -398 -5 -406
-80 -455 -78 -52 -202 -37 -252 30 -47 64 -49 83 -54 440 l-4 337 -134 0 -134
0 0 -307 c1 -363 7 -426 54 -527 59 -129 144 -199 277 -231 231 -54 447 29
540 209 l33 63 41 -56 c87 -118 193 -186 337 -215 200 -41 422 3 546 109 l42
37 0 -71 0 -71 134 0 135 0 3 323 c3 302 4 325 24 367 61 131 176 183 284 128
88 -46 100 -106 100 -520 l0 -298 130 0 130 0 0 388 c0 401 -4 442 -44 520
-46 89 -161 159 -275 169 -108 9 -199 -19 -303 -93 l-48 -34 0 260 0 260 -135
0 -135 0 0 -276z m-279 -381 c25 -11 62 -35 82 -52 l37 -33 73 41 c41 23 77
41 81 41 3 0 6 -130 6 -290 0 -159 -2 -290 -5 -290 -3 0 -40 23 -81 51 l-75
50 -41 -35 c-60 -52 -125 -71 -238 -71 -84 0 -102 3 -152 28 -64 32 -111 80
-142 146 -30 66 -29 188 2 256 39 84 111 146 202 172 63 18 195 11 251 -14z"/>
<path d="M9520 2825 l0 -85 -40 0 c-36 0 -40 -2 -40 -25 0 -22 4 -25 40 -25
l40 0 0 -190 0 -190 30 0 30 0 0 190 0 190 40 0 c36 0 40 3 40 25 0 23 -4 25
-40 25 l-40 0 0 85 0 85 -30 0 -30 0 0 -85z"/>
<path d="M8730 2601 l0 -291 91 0 c128 0 171 13 218 67 l39 44 21 -34 c33 -54
94 -82 176 -82 85 1 142 27 180 82 l25 37 -23 12 c-20 11 -25 9 -49 -20 -93
-113 -272 -72 -295 67 l-6 37 192 0 191 0 0 30 c0 78 -65 162 -144 185 -59 18
-88 19 -141 4 -49 -13 -130 -93 -140 -137 l-6 -30 -47 31 -47 31 33 32 c27 27
32 39 32 79 0 56 -27 106 -67 125 -16 7 -74 15 -130 18 l-103 5 0 -292z m199
224 c32 -16 41 -33 41 -76 0 -63 -49 -99 -136 -99 l-44 0 0 95 0 95 55 0 c31
0 69 -7 84 -15z m422 -145 c38 -20 79 -70 79 -97 0 -10 -39 -13 -160 -13 -178
0 -174 -2 -122 69 45 61 129 78 203 41z m-408 -94 c45 -19 68 -48 74 -94 11
-83 -48 -132 -161 -132 l-66 0 0 120 0 120 60 0 c33 0 75 -6 93 -14z"/>
<path d="M9767 2737 c-164 -51 -205 -268 -73 -385 77 -67 194 -68 279 -1 l37
30 0 -36 c0 -31 3 -35 25 -35 l25 0 0 215 0 215 -25 0 c-22 0 -25 -4 -25 -35
0 -19 -2 -35 -4 -35 -3 0 -19 13 -37 29 -50 46 -128 61 -202 38z m141 -51
c128 -67 135 -248 12 -313 -57 -30 -112 -30 -166 2 -110 64 -110 234 -1 300
48 28 113 33 155 11z"/>
</g>
</svg>
